<svg width="24" height="24" viewBox="0 0 24 24" fill="none" xmlns="http://www.w3.org/2000/svg">
<path d="M20.25 4.5C20.4489 4.5 20.6396 4.5791 20.7803 4.71973C20.9209 4.86035 21 5.05115 21 5.25V18.75C21 18.9489 20.9209 19.1396 20.7803 19.2803C20.6396 19.4209 20.4489 19.5 20.25 19.5H3.75C3.55115 19.5 3.36035 19.4209 3.21973 19.2803C3.0791 19.1396 3 18.9489 3 18.75V5.25C3 5.05115 3.0791 4.86035 3.21973 4.71973C3.36035 4.5791 3.55115 4.5 3.75 4.5H20.25ZM9.49512 9.1709C9.08397 9.00075 8.63169 8.95621 8.19531 9.04297C7.75882 9.12977 7.35771 9.34462 7.04297 9.65918C6.72854 9.9739 6.5145 10.3751 6.42773 10.8115C6.34104 11.2477 6.38542 11.7004 6.55566 12.1113C6.72597 12.5225 7.01498 12.874 7.38477 13.1211C7.75472 13.3681 8.19001 13.5 8.63477 13.5C8.93052 13.5012 9.22364 13.4438 9.49707 13.3311C9.77057 13.2184 10.0194 13.0528 10.2285 12.8438C10.4377 12.6347 10.6031 12.3858 10.7158 12.1123C10.8284 11.839 10.886 11.5458 10.8848 11.25C10.8848 10.8051 10.7523 10.3701 10.5049 10C10.2577 9.62998 9.90616 9.34118 9.49512 9.1709Z" fill="white" fill-opacity="0.1"/>
<path d="M14.25 11.25H18C18.4142 11.25 18.75 10.9142 18.75 10.5C18.75 10.0858 18.4142 9.75 18 9.75H14.25C13.8358 9.75 13.5 10.0858 13.5 10.5C13.5 10.9142 13.8358 11.25 14.25 11.25Z" fill="white"/>
<path d="M14.25 14.25H18C18.4142 14.25 18.75 13.9142 18.75 13.5C18.75 13.0858 18.4142 12.75 18 12.75H14.25C13.8358 12.75 13.5 13.0858 13.5 13.5C13.5 13.9142 13.8358 14.25 14.25 14.25Z" fill="white"/>
<path d="M8.63438 8.25C8.63438 8.25 9.87679 8.25023 10.7555 9.12891C10.7555 9.12891 11.6344 10.0074 11.6344 11.25C11.6344 11.25 11.6341 12.4924 10.7555 13.3711C10.755 13.3716 9.87667 14.25 8.63438 14.25C8.63438 14.25 7.39196 14.2498 6.51328 13.3711C6.51328 13.3711 5.63438 12.4926 5.63438 11.25C5.63438 11.25 5.6346 10.0076 6.51328 9.12891C6.51328 9.12891 7.39174 8.25 8.63438 8.25ZM8.63438 9.75C8.63438 9.75 8.01317 9.75011 7.57383 10.1895C7.57359 10.1897 7.13438 10.6289 7.13438 11.25C7.13438 11.25 7.13449 11.8712 7.57383 12.3105C7.57383 12.3105 8.01306 12.75 8.63438 12.75C8.63438 12.75 9.25558 12.7499 9.69492 12.3105C9.69492 12.3105 10.1344 11.8713 10.1344 11.25C10.1344 11.25 10.1343 10.6288 9.69492 10.1895C9.69459 10.1891 9.25546 9.75 8.63438 9.75Z" fill="white"/>
<path d="M10.014 14.7167C10.6223 15.1889 10.8137 15.9346 10.8137 15.9346L10.8139 15.9353L10.8141 15.936C10.899 16.2679 11.1981 16.5 11.5406 16.5L11.5557 16.4998C11.6134 16.4987 11.6708 16.4909 11.7267 16.4766C12.0585 16.3916 12.2906 16.0926 12.2906 15.75L12.2905 15.7349C12.2893 15.6772 12.2815 15.6199 12.2672 15.564C11.9486 14.3195 10.9338 13.5318 10.9338 13.5318C9.91899 12.7441 8.63438 12.7441 8.63438 12.7441C7.34976 12.7441 6.33498 13.5318 6.33498 13.5318C5.3202 14.3195 5.00156 15.564 5.00156 15.564C4.986 15.6247 4.97813 15.6872 4.97813 15.75C4.97813 15.7607 4.97835 15.7713 4.97881 15.782C4.98408 15.9055 5.01982 16.0258 5.08283 16.1322C5.1842 16.3034 5.3494 16.4272 5.5421 16.4766C5.60288 16.4921 5.66538 16.5 5.72813 16.5C5.73879 16.5 5.74946 16.4998 5.76012 16.4993C5.88365 16.494 6.00396 16.4583 6.11034 16.3953C6.28149 16.2939 6.40535 16.1287 6.45469 15.936C6.64587 15.1893 7.25474 14.7167 7.25474 14.7167C7.86361 14.2441 8.63438 14.2441 8.63438 14.2441C9.40515 14.2441 10.014 14.7167 10.014 14.7167Z" fill="white"/>
<path d="M20.25 3.75C20.25 3.75 20.8712 3.75011 21.3105 4.18945C21.3105 4.18945 21.75 4.62868 21.75 5.25V18.75C21.75 18.75 21.7499 19.3712 21.3105 19.8105C21.3105 19.8106 20.8713 20.25 20.25 20.25H3.75C3.75 20.25 3.12879 20.2499 2.68945 19.8105C2.68887 19.81 2.25 19.3709 2.25 18.75V5.25C2.25 5.25 2.25011 4.62879 2.68945 4.18945C2.68945 4.18945 3.12868 3.75 3.75 3.75H20.25ZM3.75 5.25V18.75H20.25V5.25H3.75Z" fill="white"/>
</svg>
