<svg width="24" height="24" viewBox="0 0 24 24" fill="none" xmlns="http://www.w3.org/2000/svg">
<path d="M8.74695 9.75H3V6C3 5.80106 3.0791 5.61035 3.21973 5.46964C3.36035 5.32901 3.55115 5.25 3.75 5.25H8.74695C8.909 5.25064 9.06665 5.30319 9.19684 5.39996L12 7.5L9.19684 9.60004C9.06665 9.69681 8.909 9.74936 8.74695 9.75V9.75Z" fill="white" fill-opacity="0.1"/>
<path d="M3.75 18.75V9.75C3.75 9.33579 3.41421 9 3 9C2.58579 9 2.25 9.33579 2.25 9.75V18.75C2.25 19.3713 2.68934 19.8107 2.68934 19.8107C3.12868 20.25 3.75 20.25 3.75 20.25H20.25C20.8713 20.25 21.3107 19.8107 21.3107 19.8107C21.75 19.3713 21.75 18.75 21.75 18.75V8.25C21.75 7.62868 21.3107 7.18934 21.3107 7.18934C20.8713 6.75 20.25 6.75 20.25 6.75H12C11.5858 6.75 11.25 7.08579 11.25 7.5C11.25 7.91421 11.5858 8.25 12 8.25H20.25V18.75H3.75Z" fill="white"/>
<path d="M8.75 4.5C8.75518 4.50003 9.24824 4.50368 9.64648 4.7998L12.4492 6.89941C12.5063 6.94219 12.5578 6.99369 12.6006 7.05078C12.7196 7.2099 12.7704 7.40974 12.7422 7.60645C12.7139 7.80334 12.6084 7.98133 12.4492 8.10059L9.64453 10.2021C9.63883 10.2064 9.24305 10.4976 8.75098 10.5H3C2.58579 10.5 2.25 10.1642 2.25 9.75V6C2.25 6 2.25011 5.37879 2.68945 4.93945C2.68963 4.93928 3.1288 4.5 3.75 4.5H8.75ZM3.75 6V9H8.74414C8.74442 8.99999 8.74684 8.99958 8.74902 8.99805L10.749 7.5L8.74707 6H3.75Z" fill="white"/>
</svg>
