<svg width="24" height="24" viewBox="0 0 24 24" fill="none" xmlns="http://www.w3.org/2000/svg">
<path d="M15.3656 7.50937C15.6227 8.22829 15.7528 8.98648 15.75 9.74998V9.74998C15.75 11.5402 15.0389 13.2571 13.773 14.523C12.5071 15.7888 10.7902 16.5 8.99999 16.5H8.63438C9.09974 17.8163 9.96185 18.9559 11.1019 19.7618C12.242 20.5677 13.6039 21.0003 15 21H21.1875C21.3367 21 21.4798 20.9407 21.5852 20.8352C21.6908 20.7297 21.75 20.5867 21.75 20.4375V14.25C21.7524 12.5223 21.0914 10.8597 19.9033 9.60531C18.7152 8.35097 17.0909 7.60067 15.3656 7.50937Z" fill="white" fill-opacity="0.1"/>
<path d="M9 2.25C10.4918 2.25 11.8701 2.82129 11.8701 2.82129C13.2483 3.39221 14.3037 4.44629 14.3037 4.44629C15.3527 5.49527 15.9224 6.86458 15.9287 6.87988C16.4996 8.25817 16.5 9.75 16.5 9.75C16.5 11.2418 15.9287 12.6201 15.9287 12.6201C15.3578 13.9983 14.3037 15.0537 14.3037 15.0537C13.2547 16.1027 11.8854 16.6724 11.8701 16.6787C10.4918 17.2496 9 17.25 9 17.25H2.8125C2.26885 17.25 1.88477 16.8652 1.88477 16.8652C1.50034 16.4808 1.5 15.9375 1.5 15.9375V9.75C1.5 8.25816 2.07129 6.87988 2.07129 6.87988C2.6422 5.50166 3.69629 4.44629 3.69629 4.44629C4.74527 3.39731 6.11457 2.82765 6.12988 2.82129C7.49435 2.25611 8.9701 2.25006 8.99902 2.25H9ZM9.00098 3.75C9.00098 3.75 7.80671 3.75033 6.7041 4.20703C6.7041 4.20703 5.60173 4.6639 4.75781 5.50781C4.75733 5.50829 3.91362 6.35179 3.45703 7.4541C3.45306 7.46372 3 8.56176 3 9.75V15.75H9C9 15.75 10.1933 15.7497 11.2959 15.293C11.2959 15.293 12.3983 14.8361 13.2422 13.9922C13.2423 13.9921 14.0863 13.1485 14.543 12.0459C14.547 12.0363 15 10.9382 15 9.75C15 9.75 14.9997 8.55671 14.543 7.4541C14.543 7.4541 14.0861 6.35173 13.2422 5.50781C13.2421 5.50776 12.3985 4.66374 11.2959 4.20703C11.2863 4.20306 10.1888 3.75022 9.00098 3.75Z" fill="white"/>
<path d="M15.4053 6.76042C15.3921 6.75972 15.3788 6.75937 15.3656 6.75937C15.3331 6.75937 15.3006 6.76149 15.2683 6.76571C14.9098 6.81262 14.6358 7.10866 14.6167 7.46973C14.616 7.48293 14.6156 7.49615 14.6156 7.50937C14.6156 7.52028 14.6159 7.53119 14.6163 7.54209C14.6239 7.71587 14.6917 7.8816 14.808 8.01093C14.941 8.15882 15.1274 8.24781 15.326 8.25832C17.7142 8.38471 19.3588 10.1211 19.3588 10.1211C21.0033 11.8574 21 14.2489 21 14.2489V20.25H15C13.0924 20.2505 11.5348 19.1494 11.5348 19.1494C9.97753 18.0485 9.34167 16.2505 9.34167 16.2505L9.34148 16.25C9.23554 15.9503 8.95221 15.75 8.63438 15.75L8.62518 15.7501C8.54311 15.7511 8.46176 15.7655 8.38438 15.7929C8.19684 15.8592 8.04332 15.9973 7.9576 16.1768C7.9094 16.2777 7.88438 16.3881 7.88438 16.5L7.88455 16.5163C7.88628 16.5959 7.9007 16.6748 7.92727 16.75C8.72203 18.9979 10.669 20.3743 10.669 20.3743C12.6159 21.7506 15 21.75 15 21.75H21.1875C21.7312 21.75 22.1156 21.3656 22.1156 21.3656C22.5 20.9812 22.5 20.4375 22.5 20.4375V14.251C22.502 12.8111 21.97 11.4731 21.97 11.4731C21.438 10.135 20.4478 9.08957 20.4478 9.08957C19.4576 8.04413 18.1504 7.44032 18.1504 7.44032C16.8434 6.83663 15.4058 6.76044 15.4058 6.76044L15.4053 6.76042Z" fill="white"/>
</svg>
