<svg width="37" height="37" viewBox="0 0 37 37" fill="none" xmlns="http://www.w3.org/2000/svg">
<path d="M18.2287 3.41797C15.2994 3.41797 12.4359 4.2866 10.0003 5.91402C7.56469 7.54145 5.66636 9.85456 4.54537 12.5609C3.42439 15.2672 3.13108 18.2451 3.70256 21.1181C4.27403 23.9911 5.68462 26.6301 7.75593 28.7014C9.82725 30.7728 12.4663 32.1833 15.3393 32.7548C18.2123 33.3263 21.1902 33.033 23.8965 31.912C26.6028 30.791 28.9159 28.8927 30.5433 26.4571C32.1708 24.0215 33.0394 21.158 33.0394 18.2287C33.0353 14.3019 31.4735 10.5372 28.6969 7.76051C25.9202 4.98386 22.1555 3.42212 18.2287 3.41797ZM18.2287 30.7608C15.7501 30.7608 13.3271 30.0258 11.2662 28.6488C9.2053 27.2717 7.59903 25.3145 6.6505 23.0245C5.70197 20.7346 5.45379 18.2148 5.93735 15.7838C6.4209 13.3528 7.61447 11.1198 9.36713 9.36712C11.1198 7.61447 13.3528 6.4209 15.7838 5.93734C18.2148 5.45379 20.7346 5.70196 23.0245 6.65049C25.3145 7.59902 27.2717 9.2053 28.6488 11.2662C30.0258 13.3271 30.7608 15.7501 30.7608 18.2287C30.7571 21.5513 29.4355 24.7367 27.0861 27.0861C24.7367 29.4355 21.5513 30.7571 18.2287 30.7608ZM23.4181 17.2802L16.5824 12.7231C16.4108 12.6086 16.2113 12.5428 16.0052 12.5328C15.7992 12.5229 15.5943 12.569 15.4124 12.6664C15.2305 12.7638 15.0785 12.9087 14.9725 13.0857C14.8666 13.2628 14.8107 13.4652 14.8108 13.6715V22.7858C14.8107 22.9921 14.8666 23.1946 14.9725 23.3716C15.0785 23.5487 15.2305 23.6936 15.4124 23.791C15.5943 23.8883 15.7992 23.9345 16.0052 23.9245C16.2113 23.9145 16.4108 23.8488 16.5824 23.7343L23.4181 19.1771C23.5744 19.0731 23.7026 18.9321 23.7912 18.7667C23.8798 18.6012 23.9262 18.4164 23.9262 18.2287C23.9262 18.041 23.8798 17.8562 23.7912 17.6907C23.7026 17.5252 23.5744 17.3842 23.4181 17.2802ZM17.0894 20.6568V15.8077L20.7323 18.2287L17.0894 20.6568Z" fill="white"/>
</svg>
