<svg width="24" height="24" viewBox="0 0 24 24" fill="none" xmlns="http://www.w3.org/2000/svg">
<path d="M18.75 3C18.9489 3 19.1396 3.0791 19.2803 3.21973C19.4209 3.36035 19.5 3.55115 19.5 3.75V20.25C19.5 20.4489 19.4209 20.6396 19.2803 20.7803C19.1396 20.9209 18.9489 21 18.75 21H5.25C5.05115 21 4.86035 20.9209 4.71973 20.7803C4.5791 20.6396 4.5 20.4489 4.5 20.25V3.75C4.5 3.55115 4.5791 3.36035 4.71973 3.21973C4.86035 3.0791 5.05115 3 5.25 3H18.75ZM13.1484 9.97852C12.6003 9.7515 11.9969 9.69196 11.415 9.80762C10.8329 9.92334 10.2984 10.2092 9.87891 10.6289C9.45923 11.0484 9.17334 11.5829 9.05762 12.165C8.94196 12.7469 9.0015 13.3503 9.22852 13.8984C9.45553 14.4463 9.83984 14.9145 10.333 15.2441C10.8263 15.5737 11.4067 15.75 12 15.75C12.7956 15.75 13.5586 15.4338 14.1211 14.8711C14.6838 14.3086 15 13.5456 15 12.75C15 12.1567 14.8237 11.5763 14.4941 11.083C14.1645 10.5898 13.6963 10.2055 13.1484 9.97852Z" fill="white" fill-opacity="0.1"/>
<path d="M12 9C12 9 13.553 9.00028 14.6514 10.0986C14.6514 10.0987 15.75 11.1967 15.75 12.75C15.75 12.75 15.7497 14.303 14.6514 15.4014C14.6513 15.4014 13.5533 16.5 12 16.5C11.9991 16.5 10.4467 16.4994 9.34863 15.4014C9.34824 15.401 8.25 14.303 8.25 12.75C8.25 12.75 8.25028 11.197 9.34863 10.0986C9.34863 10.0986 10.4467 9 12 9ZM12 10.5C11.9993 10.5 11.068 10.5004 10.4092 11.1592C10.4088 11.1596 9.75 11.8183 9.75 12.75C9.75 12.75 9.75017 13.6818 10.4092 14.3408C10.4092 14.3408 11.068 15 12 15C12 15 12.9318 14.9998 13.5908 14.3408C13.5908 14.3408 14.25 13.682 14.25 12.75C14.25 12.75 14.2498 11.8182 13.5908 11.1592C13.5903 11.1587 12.9316 10.5 12 10.5Z" fill="white"/>
<path d="M14.1802 17.0147C15.2095 17.5293 15.9 18.45 15.9 18.45C16.0193 18.6091 16.197 18.7143 16.3939 18.7425C16.4291 18.7475 16.4645 18.75 16.5 18.75L16.5026 18.75C16.664 18.7494 16.8209 18.6968 16.95 18.6C17.1389 18.4584 17.25 18.2361 17.25 18L17.2499 17.9902C17.2479 17.8313 17.1953 17.6771 17.1 17.55C16.197 16.3461 14.851 15.673 14.851 15.673C13.5049 15 12 15 12 15C10.4951 15 9.14901 15.673 9.14901 15.673C7.80296 16.3461 6.9 17.55 6.9 17.55C6.80263 17.6798 6.75 17.8377 6.75 18L6.75003 18.0066C6.75032 18.0399 6.75283 18.0731 6.75754 18.1061C6.78567 18.303 6.89087 18.4807 7.05 18.6C7.17982 18.6974 7.33772 18.75 7.5 18.75L7.5066 18.75C7.53989 18.7497 7.57311 18.7472 7.60607 18.7425C7.80298 18.7143 7.98065 18.6091 8.1 18.45C8.7905 17.5293 9.81983 17.0147 9.81983 17.0147C10.8492 16.5 12 16.5 12 16.5C13.1508 16.5 14.1802 17.0147 14.1802 17.0147Z" fill="white"/>
<path d="M20.25 20.25C20.25 20.25 20.2499 20.8712 19.8105 21.3105C19.8105 21.3105 19.3713 21.75 18.75 21.75H5.25C5.25 21.75 4.62879 21.7499 4.18945 21.3105C4.18943 21.3105 3.75 20.8713 3.75 20.25V3.75C3.75 3.75 3.75011 3.12879 4.18945 2.68945C4.19004 2.68887 4.62909 2.25 5.25 2.25L18.75 2.25C18.75 2.25 19.3712 2.25011 19.8105 2.68945C19.8105 2.68945 20.25 3.12868 20.25 3.75V20.25ZM18.75 3.75L5.25 3.75L5.25 20.25H18.75V3.75Z" fill="white"/>
<path d="M9 6.75H15C15.4142 6.75 15.75 6.41421 15.75 6C15.75 5.58579 15.4142 5.25 15 5.25H9C8.58579 5.25 8.25 5.58579 8.25 6C8.25 6.41421 8.58579 6.75 9 6.75Z" fill="white"/>
</svg>
