<svg width="20" height="20" viewBox="0 0 20 20" fill="none" xmlns="http://www.w3.org/2000/svg">
<path d="M10 1.875C10.1658 1.875 10.3247 1.94085 10.4419 2.05806C10.5592 2.17527 10.625 2.33424 10.625 2.5V12.8664L15.1828 8.30781C15.2409 8.24974 15.3098 8.20368 15.3857 8.17225C15.4616 8.14083 15.5429 8.12465 15.625 8.12465C15.7071 8.12465 15.7884 8.14083 15.8643 8.17225C15.9402 8.20368 16.0091 8.24974 16.0672 8.30781C16.1253 8.36588 16.1713 8.43482 16.2027 8.51069C16.2342 8.58656 16.2503 8.66788 16.2503 8.75C16.2503 8.83212 16.2342 8.91344 16.2027 8.98931C16.1713 9.06518 16.1253 9.13412 16.0672 9.19219L10.4422 14.8172C10.3841 14.8753 10.3152 14.9214 10.2393 14.9528C10.1635 14.9843 10.0821 15.0005 10 15.0005C9.91787 15.0005 9.83654 14.9843 9.76066 14.9528C9.68479 14.9214 9.61586 14.8753 9.55781 14.8172L3.93281 9.19219C3.87474 9.13412 3.82868 9.06518 3.79725 8.98931C3.76583 8.91344 3.74965 8.83212 3.74965 8.75C3.74965 8.66788 3.76583 8.58656 3.79725 8.51069C3.82868 8.43482 3.87474 8.36588 3.93281 8.30781C3.99088 8.24974 4.05982 8.20368 4.13569 8.17225C4.21156 8.14083 4.29288 8.12465 4.375 8.12465C4.45712 8.12465 4.53844 8.14083 4.61431 8.17225C4.69018 8.20368 4.75912 8.24974 4.81719 8.30781L9.375 12.8664V2.5C9.375 2.33424 9.44085 2.17527 9.55806 2.05806C9.67527 1.94085 9.83424 1.875 10 1.875ZM2.5 16.875C2.5 17.0408 2.56585 17.1997 2.68306 17.3169C2.80027 17.4342 2.95924 17.5 3.125 17.5H16.875C17.0408 17.5 17.1997 17.4342 17.3169 17.3169C17.4342 17.1997 17.5 17.0408 17.5 16.875C17.5 16.7092 17.4342 16.5503 17.3169 16.4331C17.1997 16.3158 17.0408 16.25 16.875 16.25H3.125C2.95924 16.25 2.80027 16.3158 2.68306 16.4331C2.56585 16.5503 2.5 16.7092 2.5 16.875Z" fill="#5F5F5F"/>
</svg>
