<svg width="19" height="19" viewBox="0 0 19 19" fill="none" xmlns="http://www.w3.org/2000/svg">
<path d="M16.0408 9.67303L10.8303 14.8836C10.7217 14.9922 10.5743 15.0532 10.4207 15.0532C10.2671 15.0532 10.1197 14.9922 10.0111 14.8836C9.90245 14.7749 9.84142 14.6276 9.84142 14.474C9.84142 14.3203 9.90245 14.173 10.0111 14.0644L14.2338 9.84238H2.89438C2.74083 9.84238 2.59357 9.78138 2.485 9.67281C2.37643 9.56423 2.31543 9.41697 2.31543 9.26343C2.31543 9.10988 2.37643 8.96262 2.485 8.85405C2.59357 8.74548 2.74083 8.68448 2.89438 8.68448H14.2338L10.0111 4.46251C9.90245 4.35387 9.84142 4.20653 9.84142 4.0529C9.84142 3.89927 9.90245 3.75193 10.0111 3.6433C10.1197 3.53466 10.2671 3.47363 10.4207 3.47363C10.5743 3.47363 10.7217 3.53466 10.8303 3.6433L16.0408 8.85382C16.0947 8.90759 16.1374 8.97144 16.1665 9.04173C16.1956 9.11201 16.2106 9.18735 16.2106 9.26343C16.2106 9.33951 16.1956 9.41485 16.1665 9.48513C16.1374 9.55541 16.0947 9.61927 16.0408 9.67303Z" fill="#1C1C1C"/>
</svg>
