<svg width="24" height="24" viewBox="0 0 24 24" fill="none" xmlns="http://www.w3.org/2000/svg">
<path d="M3 7.5H21V5.25C21 5.05115 20.921 4.86035 20.7803 4.71973C20.6397 4.5791 20.4489 4.5 20.25 4.5H3.75C3.55109 4.5 3.36032 4.5791 3.21967 4.71973C3.07902 4.86035 3 5.05115 3 5.25V7.5Z" fill="white" fill-opacity="0.1"/>
<path d="M20.25 3.75C20.25 3.75 20.8712 3.75011 21.3105 4.18945C21.3105 4.18945 21.75 4.62868 21.75 5.25V18.75C21.75 18.75 21.7499 19.3712 21.3105 19.8105C21.3105 19.8106 20.8713 20.25 20.25 20.25H3.75C3.75 20.25 3.12879 20.2499 2.68945 19.8105C2.68887 19.81 2.25 19.3709 2.25 18.75V5.25C2.25 5.25 2.25011 4.62879 2.68945 4.18945C2.68945 4.18945 3.12868 3.75 3.75 3.75H20.25ZM3.75 5.25V18.75H20.25V5.25H3.75Z" fill="white"/>
<path d="M3 8.25H21C21.4142 8.25 21.75 7.91421 21.75 7.5C21.75 7.08579 21.4142 6.75 21 6.75H3C2.58579 6.75 2.25 7.08579 2.25 7.5C2.25 7.91421 2.58579 8.25 3 8.25Z" fill="white"/>
<path d="M9.87868 12.6213C9 11.7426 9 10.5 9 10.5C9 10.0858 8.66421 9.75 8.25 9.75C7.83579 9.75 7.5 10.0858 7.5 10.5C7.5 12.364 8.81802 13.682 8.81802 13.682C10.136 15 12 15 12 15C13.864 15 15.182 13.682 15.182 13.682C16.5 12.364 16.5 10.5 16.5 10.5C16.5 10.0858 16.1642 9.75 15.75 9.75C15.3358 9.75 15 10.0858 15 10.5C15 11.7426 14.1213 12.6213 14.1213 12.6213C13.2426 13.5 12 13.5 12 13.5C10.7574 13.5 9.87868 12.6213 9.87868 12.6213Z" fill="white"/>
</svg>
