<svg width="37" height="37" viewBox="0 0 37 37" fill="none" xmlns="http://www.w3.org/2000/svg">
<path d="M18.2287 3.41797C15.2994 3.41797 12.4359 4.2866 10.0003 5.91402C7.56469 7.54145 5.66636 9.85456 4.54537 12.5609C3.42439 15.2672 3.13108 18.2451 3.70256 21.1181C4.27403 23.9911 5.68462 26.6301 7.75593 28.7014C9.82725 30.7728 12.4663 32.1833 15.3393 32.7548C18.2123 33.3263 21.1902 33.033 23.8965 31.912C26.6028 30.791 28.9159 28.8927 30.5433 26.4571C32.1708 24.0215 33.0394 21.158 33.0394 18.2287C33.0353 14.3019 31.4735 10.5372 28.6969 7.76051C25.9202 4.98386 22.1555 3.42212 18.2287 3.41797ZM18.2287 30.7608C15.7501 30.7608 13.3271 30.0258 11.2662 28.6488C9.2053 27.2717 7.59903 25.3145 6.6505 23.0245C5.70197 20.7346 5.45379 18.2148 5.93735 15.7838C6.4209 13.3528 7.61447 11.1198 9.36713 9.36712C11.1198 7.61447 13.3528 6.4209 15.7838 5.93734C18.2148 5.45379 20.7346 5.70196 23.0245 6.65049C25.3145 7.59902 27.2717 9.2053 28.6488 11.2662C30.0258 13.3271 30.7608 15.7501 30.7608 18.2287C30.7571 21.5513 29.4355 24.7367 27.0861 27.0861C24.7367 29.4355 21.5513 30.7571 18.2287 30.7608ZM15.9501 13.6715V22.7858C15.9501 23.088 15.8301 23.3778 15.6164 23.5914C15.4028 23.8051 15.113 23.9251 14.8108 23.9251C14.5087 23.9251 14.2189 23.8051 14.0052 23.5914C13.7916 23.3778 13.6715 23.088 13.6715 22.7858V13.6715C13.6715 13.3694 13.7916 13.0796 14.0052 12.8659C14.2189 12.6523 14.5087 12.5323 14.8108 12.5323C15.113 12.5323 15.4028 12.6523 15.6164 12.8659C15.8301 13.0796 15.9501 13.3694 15.9501 13.6715ZM22.7858 13.6715V22.7858C22.7858 23.088 22.6658 23.3778 22.4521 23.5914C22.2385 23.8051 21.9487 23.9251 21.6465 23.9251C21.3444 23.9251 21.0546 23.8051 20.8409 23.5914C20.6273 23.3778 20.5073 23.088 20.5073 22.7858V13.6715C20.5073 13.3694 20.6273 13.0796 20.8409 12.8659C21.0546 12.6523 21.3444 12.5323 21.6465 12.5323C21.9487 12.5323 22.2385 12.6523 22.4521 12.8659C22.6658 13.0796 22.7858 13.3694 22.7858 13.6715Z" fill="white"/>
</svg>
